<svg width="499" height="637" viewBox="0 0 499 637" fill="none" xmlns="http://www.w3.org/2000/svg">
<path d="M183.5 629C151.9 623 164 606.5 171 595.5C195 557.5 232.5 537.5 253 529.5C273.5 521.5 261 526 346.5 497.5C432 469 478 421 487.5 410C495.1 401.2 496 406.667 495.5 410.5C476.791 589.058 323.231 636.362 251 637C241.667 636.833 215.1 635 183.5 629Z" fill="url(#paint0_linear_1_39)"/>
<path d="M125 602C113.8 592.4 113.333 569 114.5 558.5C122.9 484.5 197.333 452.333 233.5 445.5C252 442.833 296 436.9 324 434.5C437 419.5 472 381.5 485 368C498 354.5 500 372 496 375.5C438.5 451 377 467.5 316.5 491.5C256 515.5 246.5 505.5 203.5 538.5C160.5 571.5 154.5 593.5 152.5 597C150.5 600.5 147.5 610 144.5 610.5C141.5 611 139 614 125 602Z" fill="url(#paint1_linear_1_39)"/>
<path d="M125 602C113.8 592.4 113.333 569 114.5 558.5C122.9 484.5 197.333 452.333 233.5 445.5C252 442.833 296 436.9 324 434.5C437 419.5 472 381.5 485 368C498 354.5 500 372 496 375.5C438.5 451 377 467.5 316.5 491.5C256 515.5 246.5 505.5 203.5 538.5C160.5 571.5 154.5 593.5 152.5 597C150.5 600.5 147.5 610 144.5 610.5C141.5 611 139 614 125 602Z" fill="url(#paint2_linear_1_39)"/>
<path d="M91.5 581C20.7 518.6 3.99999 438 4.49999 405.5C47 347.5 82.5 334 126 320C160.8 308.8 225.167 312.667 253 316C269.667 317.833 310.3 320.4 339.5 316C418.3 304 464.667 267 478 250C480.667 246.167 486.5 239.5 488.5 243.5C494 255.5 502 324 497 331C460.2 394.2 358.667 416.667 312.5 420C245.7 425.6 213.333 433.667 205.5 437C193.5 442.106 167.4 450.1 135 482.5C102.6 514.9 97.5 556 99 572.5C99.5 577.667 98.7 586.6 91.5 581Z" fill="url(#paint3_linear_1_39)"/>
<path d="M91.5 581C20.7 518.6 3.99999 438 4.49999 405.5C47 347.5 82.5 334 126 320C160.8 308.8 225.167 312.667 253 316C269.667 317.833 310.3 320.4 339.5 316C418.3 304 464.667 267 478 250C480.667 246.167 486.5 239.5 488.5 243.5C494 255.5 502 324 497 331C460.2 394.2 358.667 416.667 312.5 420C245.7 425.6 213.333 433.667 205.5 437C193.5 442.106 167.4 450.1 135 482.5C102.6 514.9 97.5 556 99 572.5C99.5 577.667 98.7 586.6 91.5 581Z" fill="url(#paint4_linear_1_39)" fill-opacity="0.51"/>
<path d="M91.5 581C20.7 518.6 3.99999 438 4.49999 405.5C47 347.5 82.5 334 126 320C160.8 308.8 225.167 312.667 253 316C269.667 317.833 310.3 320.4 339.5 316C418.3 304 464.667 267 478 250C480.667 246.167 486.5 239.5 488.5 243.5C494 255.5 502 324 497 331C460.2 394.2 358.667 416.667 312.5 420C245.7 425.6 213.333 433.667 205.5 437C193.5 442.106 167.4 450.1 135 482.5C102.6 514.9 97.5 556 99 572.5C99.5 577.667 98.7 586.6 91.5 581Z" fill="url(#paint5_linear_1_39)" fill-opacity="0.53"/>
<path d="M158.5 298C113.7 300.4 76.8333 319.667 64 329C99.5 272 179.5 239.5 224 220.5C259.6 205.3 284.167 192.167 292 187.5C305.5 180 336.3 161.3 355.5 128.5C374.7 95.7 374.5 64.5 372 53C371.167 47.6667 371.2 38.5 378 44.5C449.6 99.3 477.833 182 483 216.5C421.5 300.5 336 303.5 288.5 302C241 300.5 214.5 295 158.5 298Z" fill="url(#paint6_linear_1_39)"/>
<path d="M158.5 298C113.7 300.4 76.8333 319.667 64 329C99.5 272 179.5 239.5 224 220.5C259.6 205.3 284.167 192.167 292 187.5C305.5 180 336.3 161.3 355.5 128.5C374.7 95.7 374.5 64.5 372 53C371.167 47.6667 371.2 38.5 378 44.5C449.6 99.3 477.833 182 483 216.5C421.5 300.5 336 303.5 288.5 302C241 300.5 214.5 295 158.5 298Z" fill="url(#paint7_linear_1_39)" fill-opacity="0.2"/>
<path d="M38.5 344.5L1.50002 383.5C-2.89998 306.3 9.33335 241.333 16 218.5C26.8334 208.667 65.8 184 135 164C204.2 144 237.167 127.333 245 121.5C248.833 119.833 262.3 111 285.5 89C314.5 61.5 316 38.5 316.5 25.5C316.9 15.1 321.667 13.8334 324 14.5C329 15.6667 340.5 19.5 346.5 25.5C372.9 56.3 354.167 102.333 341.5 121.5C334 136.833 296.9 176 208.5 210C88.5 256 45.1667 318.833 38.5 344.5Z" fill="url(#paint8_linear_1_39)"/>
<path d="M38.5 344.5L1.50002 383.5C-2.89998 306.3 9.33335 241.333 16 218.5C26.8334 208.667 65.8 184 135 164C204.2 144 237.167 127.333 245 121.5C248.833 119.833 262.3 111 285.5 89C314.5 61.5 316 38.5 316.5 25.5C316.9 15.1 321.667 13.8334 324 14.5C329 15.6667 340.5 19.5 346.5 25.5C372.9 56.3 354.167 102.333 341.5 121.5C334 136.833 296.9 176 208.5 210C88.5 256 45.1667 318.833 38.5 344.5Z" fill="url(#paint9_linear_1_39)"/>
<path d="M31.5 189.5C22.7 195.5 23.8333 188 25.5 183.5C79.4999 36 192 5.00001 240 1.50001C278.4 -1.29999 294 4.66667 297 8.00001C302.333 14.5 307.9 34.4 287.5 62C267.1 89.6 237.667 108.167 225.5 114C213.833 120 184.8 133.3 162 138.5C139.2 143.7 103.5 157 88.5 163C73.1667 169.333 40.3 183.5 31.5 189.5Z" fill="url(#paint10_linear_1_39)"/>
<path d="M31.5 189.5C22.7 195.5 23.8333 188 25.5 183.5C79.4999 36 192 5.00001 240 1.50001C278.4 -1.29999 294 4.66667 297 8.00001C302.333 14.5 307.9 34.4 287.5 62C267.1 89.6 237.667 108.167 225.5 114C213.833 120 184.8 133.3 162 138.5C139.2 143.7 103.5 157 88.5 163C73.1667 169.333 40.3 183.5 31.5 189.5Z" fill="url(#paint11_linear_1_39)"/>
<defs>
<linearGradient id="paint0_linear_1_39" x1="297.5" y1="542" x2="329" y2="643.5" gradientUnits="userSpaceOnUse">
<stop stop-color="#F92672"/>
<stop offset="1" stop-color="#F9264C"/>
</linearGradient>
<linearGradient id="paint1_linear_1_39" x1="93" y1="681" x2="261" y2="315.5" gradientUnits="userSpaceOnUse">
<stop stop-color="#08444B"/>
<stop offset="1" stop-color="#38EAC1"/>
</linearGradient>
<linearGradient id="paint2_linear_1_39" x1="310.5" y1="584.5" x2="204" y2="433.5" gradientUnits="userSpaceOnUse">
<stop stop-color="#F92672"/>
<stop offset="1" stop-color="#F92672" stop-opacity="0"/>
</linearGradient>
<linearGradient id="paint3_linear_1_39" x1="137.5" y1="302.5" x2="84.5" y2="613.5" gradientUnits="userSpaceOnUse">
<stop stop-color="#40D7C2"/>
<stop offset="1" stop-color="#08444B"/>
</linearGradient>
<linearGradient id="paint4_linear_1_39" x1="-70.0001" y1="102" x2="448" y2="442.5" gradientUnits="userSpaceOnUse">
<stop offset="0.406847" stop-color="#08444B"/>
<stop offset="1" stop-opacity="0"/>
</linearGradient>
<linearGradient id="paint5_linear_1_39" x1="429" y1="342.5" x2="168.5" y2="106" gradientUnits="userSpaceOnUse">
<stop stop-color="#A0F5E6"/>
<stop offset="1" stop-opacity="0"/>
</linearGradient>
<linearGradient id="paint6_linear_1_39" x1="455" y1="252.5" x2="229" y2="-7.99999" gradientUnits="userSpaceOnUse">
<stop stop-color="#38EAC1"/>
<stop offset="0.947411" stop-color="#04484D"/>
</linearGradient>
<linearGradient id="paint7_linear_1_39" x1="483" y1="213" x2="114.5" y2="314.5" gradientUnits="userSpaceOnUse">
<stop stop-color="#A7F7E7"/>
<stop offset="1" stop-color="#08444B"/>
</linearGradient>
<linearGradient id="paint8_linear_1_39" x1="203.5" y1="97" x2="274.5" y2="212.5" gradientUnits="userSpaceOnUse">
<stop stop-color="#016C6A"/>
<stop offset="1" stop-color="#A0F5E6"/>
</linearGradient>
<linearGradient id="paint9_linear_1_39" x1="564" y1="438" x2="311.5" y2="18" gradientUnits="userSpaceOnUse">
<stop stop-color="#38EAC1"/>
<stop offset="1" stop-color="#38EAC1" stop-opacity="0"/>
</linearGradient>
<linearGradient id="paint10_linear_1_39" x1="207.5" y1="128" x2="149" y2="21.5" gradientUnits="userSpaceOnUse">
<stop stop-color="#A0F5E6"/>
<stop offset="1" stop-color="#03988A"/>
</linearGradient>
<linearGradient id="paint11_linear_1_39" x1="587.5" y1="143" x2="163.152" y2="191.733" gradientUnits="userSpaceOnUse">
<stop stop-color="#08444B"/>
<stop offset="1" stop-color="#08444B" stop-opacity="0"/>
</linearGradient>
</defs>
</svg>
